# xmcd CD database file
#
# Track frame offsets:
#	150
#	14450
#	27877
#	42162
#	54849
#	69112
#	84273
#	97986
#	111019
#	125024
#	139508
#	153801
#	167552
#	181390
#	197387
#	210885
#	223818
#	236889
#	249418
#	263515
#	276757
#	291383
#	306191
#	317960
#	333402
#
# Disc length: 4601 seconds
#
# Revision: 0
# Processed by: cddbd v1.5.2PL0 Copyright (c) Steve Scherf et al.
# Submitted via: CDex 1.51
#
DISCID=5311f719
DTITLE=A - Z Sampler  - New Orleans Blues CD 1
DYEAR=2011
DGENRE=Blues
TTITLE0=Richard (Rabbit) Brown - James Alley
TTITLE1=Lillian Glinn - Where Have All The Black Men Gone
TTITLE2=Will Day - Central Avenue Blues
TTITLE3=Mary Butler - Electrocuted Blues
TTITLE4=Bo Chatman - Good Old Turnip Greens
TTITLE5=Dewey Segura - Far Away From Home Blues
TTITLE6=Blind Willie Johnson - God Moves On The Water
TTITLE7=Christina Gray - The Reverend Is My Man
TTITLE8=Amede Ardoin - Blues de Basille 
TTITLE9=Bo Carter and Walter Jacobs - Time Is Tight Like That
TTITLE10=Amede Ardoin - Les Blues de la Prison
TTITLE11=The Mississippi Sheiks - Lean To One Woman
TTITLE12=Lawrence Walker - Alberta
TTITLE13=Harry Carter - These Jackson Women Will Not Treat You Right
TTITLE14=Little Brother Montgomery - Vicksburg Blues No 2
TTITLE15=Falcon Trio - Raise Your Window
TTITLE16=Bo Carter - Ride My Mule
TTITLE17=Walter Jacobs - Rats Been On My Cheese
TTITLE18=Oscar Woods (The Lone Wolf) - Evil Hearted Woman
TTITLE19=Robert Hill - You Gonna Look Like A Monkey When You Get Old
TTITLE20=Bo Carter - Bo Carter's Advice
TTITLE21=Chatman Brothers - If You Don't Want Me Please Don't Dog Me Around
TTITLE22=Robert Hill - Lumber-Yard Blues
TTITLE23=Tommy Griffin - Young Heifer Blues
TTITLE24=Little Brother Montgomery - Crescent City Blues
EXTD=YEAR: 2011
EXTT0=
EXTT1=
EXTT2=
EXTT3=
EXTT4=
EXTT5=
EXTT6=
EXTT7=
EXTT8=
EXTT9=
EXTT10=
EXTT11=
EXTT12=
EXTT13=
EXTT14=
EXTT15=
EXTT16=
EXTT17=
EXTT18=
EXTT19=
EXTT20=
EXTT21=
EXTT22=
EXTT23=
EXTT24=
PLAYORDER=
